<?xml version="1.0" encoding="iso-8859-1"?>
<!-- Generator: Adobe Illustrator 21.0.0, SVG Export Plug-In . SVG Version: 6.00 Build 0)  -->
<svg xmlns="http://www.w3.org/2000/svg" xmlns:xlink="http://www.w3.org/1999/xlink" version="1.1" id="Capa_1" x="0px" y="0px" viewBox="0 0 512 512" style="enable-background:new 0 0 512 512;" xml:space="preserve" width="512" height="512">
<g>
	<path style="fill:#546E7A;" d="M506.944,207.941H5.056c-2.792,0-5.056-2.264-5.056-5.056V50.056C0,47.264,2.264,45,5.056,45   h501.888c2.792,0,5.056,2.264,5.056,5.056v152.829C512,205.677,509.736,207.941,506.944,207.941z"/>
	<path style="fill:#37474F;" d="M464.5,45v66.062c0,42.459-34.42,76.879-76.879,76.879H0v14.944c0,2.792,2.264,5.056,5.056,5.056   h501.888c2.792,0,5.056-2.264,5.056-5.056V50.056c0-2.792-2.264-5.056-5.056-5.056H464.5z"/>
	<path style="fill:#CFD8DC;" d="M474.5,89.203c-7.832,0-14.203-6.371-14.203-14.203c0-4.142-3.357-7.5-7.5-7.5H59.203   c-4.143,0-7.5,3.358-7.5,7.5c0,7.832-6.371,14.203-14.203,14.203c-4.143,0-7.5,3.358-7.5,7.5v59.535c0,4.142,3.357,7.5,7.5,7.5   c7.832,0,14.203,6.372,14.203,14.203c0,4.142,3.357,7.5,7.5,7.5h393.594c4.143,0,7.5-3.358,7.5-7.5   c0-7.832,6.371-14.203,14.203-14.203c4.143,0,7.5-3.358,7.5-7.5V96.703C482,92.561,478.643,89.203,474.5,89.203z"/>
	<path style="fill:#90A4AE;" d="M474.5,89.203c-7.832,0-14.203-6.371-14.203-14.203c0-4.142-3.357-7.5-7.5-7.5H442v68.738   c0,4.142-3.357,7.5-7.5,7.5c-7.832,0-14.203,6.372-14.203,14.203c0,4.142-3.357,7.5-7.5,7.5H44.236   c4.442,2.404,7.467,7.105,7.467,12.5c0,4.142,3.357,7.5,7.5,7.5h393.594c4.143,0,7.5-3.358,7.5-7.5   c0-7.832,6.371-14.203,14.203-14.203c4.143,0,7.5-3.358,7.5-7.5V96.703C482,92.561,478.643,89.203,474.5,89.203z"/>
	<path style="fill:#546E7A;" d="M181.677,249.729H65.654c-1.744,0-3.158,1.414-3.158,3.158V467h122.338V252.887   C184.835,251.143,183.421,249.729,181.677,249.729z"/>
	<path style="fill:#37474F;" d="M154.835,249.729V398.6c0,26.73-21.669,48.4-48.4,48.4H62.496v20h122.339V252.887   c0-1.744-1.414-3.158-3.158-3.158H154.835z"/>
	<path style="fill:#B2EBF2;" d="M87.496,441.388V275.341c0-0.338,0.274-0.612,0.612-0.612h71.116c0.338,0,0.612,0.274,0.612,0.612   v166.047c0,0.338-0.274,0.612-0.612,0.612H88.108C87.77,442,87.496,441.726,87.496,441.388z"/>
	<path style="fill:#4DD0E1;" d="M129.835,274.729v119.424c0,15.379-12.467,27.847-27.847,27.847H87.496v19.388   c0,0.338,0.274,0.612,0.612,0.612h71.116c0.338,0,0.612-0.274,0.612-0.612V275.341c0-0.338-0.274-0.612-0.612-0.612H129.835z"/>
	<path style="fill:#CFD8DC;" d="M62.496,467h-49.94c-2.792,0-5.056-2.264-5.056-5.056v-25.253c0-2.792,2.264-5.056,5.056-5.056   h49.94V467z"/>
	<path style="fill:#CFD8DC;" d="M499.444,467H184.835v-35.365h314.609c2.792,0,5.056,2.264,5.056,5.056v25.253   C504.5,464.736,502.236,467,499.444,467z"/>
	<path style="fill:#90A4AE;" d="M62.496,467h-49.94c-2.792,0-5.056-2.264-5.056-5.056V452h54.996V467z"/>
	<path style="fill:#90A4AE;" d="M464.5,431.635V452H184.835v15h314.61c2.792,0,5.056-2.264,5.056-5.056v-25.253   c0-2.792-2.264-5.056-5.056-5.056H464.5z"/>
	<path style="fill:#78909C;" d="M22.511,207.941v223.695h39.985V252.887c0-1.744,1.414-3.158,3.158-3.158h116.023   c1.744,0,3.158,1.414,3.158,3.158v178.748h304.655V207.941H22.511z"/>
	<path style="fill:#455A64;" d="M62.496,411.635v20H22.511v-20H62.496z M449.489,207.941v203.695H184.835v20h304.655V207.941   H449.489z"/>
	<path style="fill:#B2EBF2;" d="M443.986,431.635H230.338c-3.039,0-5.503-2.464-5.503-5.503V255.233   c0-3.039,2.464-5.503,5.503-5.503h213.648c3.039,0,5.503,2.464,5.503,5.503v170.899   C449.489,429.171,447.025,431.635,443.986,431.635z"/>
	<path style="fill:#4DD0E1;" d="M367.104,249.729c9.286,0,5.714,0,15,0c0,185.989-0.1,181.906,0,181.906c-0.225,0-15.118,0-15,0   C367.104,245.647,367.004,249.729,367.104,249.729z M307.22,431.635c0-185.989-0.1-181.906,0-181.906c-0.225,0-15.118,0-15,0   c0,185.989-0.1,181.906,0,181.906C301.506,431.635,297.934,431.635,307.22,431.635z"/>
	<path style="fill:#4DD0E1;" d="M409.489,249.729v87.72c0,40.972-33.214,74.186-74.186,74.186H224.835v14.497   c0,3.039,2.464,5.503,5.503,5.503h213.648c3.039,0,5.503-2.464,5.503-5.503V255.233c0-3.039-2.464-5.503-5.503-5.503H409.489z"/>
	<path style="fill:#CFD8DC;" d="M159.835,388.836v-60.942c0-0.52,0.421-0.941,0.941-0.941h23.118c0.52,0,0.941,0.421,0.941,0.941   v60.942c0,0.52-0.421,0.941-0.941,0.941h-23.118C160.256,389.776,159.835,389.355,159.835,388.836z"/>
	<path style="fill:#90A4AE;" d="M183.894,326.953h-9.059v46.671c0,3.398-2.755,6.153-6.153,6.153h-8.847v9.059   c0,0.52,0.421,0.941,0.941,0.941h23.118c0.52,0,0.941-0.421,0.941-0.941v-60.942C184.835,327.374,184.413,326.953,183.894,326.953z   "/>
	<path style="fill:#0097A7;" d="M307.22,411.635v20h-15v-20H307.22z M367.104,404.483v27.152h15V395   C377.525,398.728,372.495,401.921,367.104,404.483z"/>
	<g>
		<path style="fill:#546E7A;" d="M149.328,103.697c0-4.142-3.357-7.5-7.5-7.5c-80.311,0,4.252,0-36.074,0    c-4.143,0-7.5,3.358-7.5,7.5s3.357,7.5,7.5,7.5h10.537v39.721c0,4.142,3.357,7.5,7.5,7.5s7.5-3.358,7.5-7.5v-39.721h10.537    C145.971,111.197,149.328,107.839,149.328,103.697z"/>
		<path style="fill:#546E7A;" d="M239.338,96.197c-80.311,0,4.252,0-36.074,0c-4.143,0-7.5,3.358-7.5,7.5s3.357,7.5,7.5,7.5h10.537    v39.721c0,4.142,3.357,7.5,7.5,7.5s7.5-3.358,7.5-7.5v-39.721h10.537c4.143,0,7.5-3.358,7.5-7.5S243.48,96.197,239.338,96.197z"/>
		<path style="fill:#546E7A;" d="M295.766,96.197c-80.311,0,4.252,0-36.074,0c-4.143,0-7.5,3.358-7.5,7.5s3.357,7.5,7.5,7.5h10.537    v39.721c0,4.142,3.357,7.5,7.5,7.5s7.5-3.358,7.5-7.5v-39.721h10.537c4.143,0,7.5-3.358,7.5-7.5S299.908,96.197,295.766,96.197z"/>
		<path style="fill:#546E7A;" d="M193.921,126.603c-0.015-0.797-0.156-1.561-0.401-2.278l-2.174-12.36    c-1.608-9.145-9.516-15.783-18.801-15.783s-17.192,6.638-18.801,15.783l-6.623,37.654c-0.718,4.08,2.008,7.968,6.088,8.686    c4.074,0.712,7.968-2.008,8.686-6.087l3.161-17.969h14.979l3.161,17.969c0.718,4.078,4.605,6.805,8.686,6.087    c4.08-0.718,6.806-4.606,6.088-8.686L193.921,126.603z M167.695,119.249l0.824-4.685c0.345-1.959,2.038-3.381,4.027-3.381    s3.683,1.422,4.027,3.381l0.824,4.685H167.695z"/>
		<path style="fill:#546E7A;" d="M330.435,96.197c-14.081,0-25.537,11.456-25.537,25.537v11.162    c0,14.081,11.456,25.537,25.537,25.537s25.537-11.456,25.537-25.537v-11.162C355.972,107.653,344.516,96.197,330.435,96.197z     M340.972,132.896c0,5.81-4.727,10.537-10.537,10.537s-10.537-4.727-10.537-10.537v-11.162c0-5.81,4.727-10.537,10.537-10.537    s10.537,4.727,10.537,10.537V132.896z"/>
		<path style="fill:#546E7A;" d="M388.209,96.197c-14.081,0-25.537,11.456-25.537,25.537v11.162    c0,14.081,11.456,25.537,25.537,25.537s25.537-11.456,25.537-25.537v-11.162C413.746,107.653,402.29,96.197,388.209,96.197z     M398.746,132.896c0,5.81-4.727,10.537-10.537,10.537s-10.537-4.727-10.537-10.537v-11.162c0-5.81,4.727-10.537,10.537-10.537    s10.537,4.727,10.537,10.537V132.896z"/>
	</g>
</g>















</svg>
